<svg xmlns="http://www.w3.org/2000/svg" style="display: none;">
  <!-- Search Icon -->
  <symbol id="search" viewBox="0 0 20 20">
    <path d="M8 4a4 4 0 100 8 4 4 0 000-8zM2 8a6 6 0 1110.89 3.476l4.817 4.817a1 1 0 01-1.414 1.414l-4.816-4.816A6 6 0 012 8z" fill="currentColor"/>
  </symbol>

  <!-- Search Icon (20px) -->
  <symbol id="search-20" viewBox="0 0 20 20">
    <path d="M8 4a4 4 0 100 8 4 4 0 000-8zM2 8a6 6 0 1110.89 3.476l4.817 4.817a1 1 0 01-1.414 1.414l-4.816-4.816A6 6 0 012 8z" fill="currentColor"/>
  </symbol>

  <!-- Close Icon -->
  <symbol id="close-20" viewBox="0 0 20 20">
    <path d="M4.293 4.293a1 1 0 011.414 0L10 8.586l4.293-4.293a1 1 0 111.414 1.414L11.414 10l4.293 4.293a1 1 0 01-1.414 1.414L10 11.414l-4.293 4.293a1 1 0 01-1.414-1.414L8.586 10 4.293 5.707a1 1 0 010-1.414z" fill="currentColor"/>
  </symbol>

  <!-- Arrow Right -->
  <symbol id="arrow-right" viewBox="0 0 20 20">
    <path d="M10.293 3.293a1 1 0 011.414 0l6 6a1 1 0 010 1.414l-6 6a1 1 0 01-1.414-1.414L14.586 11H3a1 1 0 110-2h11.586l-4.293-4.293a1 1 0 010-1.414z" fill="currentColor"/>
  </symbol>

  <!-- Arrow Left -->
  <symbol id="arrow-left" viewBox="0 0 20 20">
    <path d="M9.707 16.707a1 1 0 01-1.414 0l-6-6a1 1 0 010-1.414l6-6a1 1 0 011.414 1.414L5.414 9H17a1 1 0 110 2H5.414l4.293 4.293a1 1 0 010 1.414z" fill="currentColor"/>
  </symbol>

  <!-- Arrow Previous -->
  <symbol id="arrow_prev-20" viewBox="0 0 20 20">
    <path d="M9.707 16.707a1 1 0 01-1.414 0l-6-6a1 1 0 010-1.414l6-6a1 1 0 011.414 1.414L5.414 9H17a1 1 0 110 2H5.414l4.293 4.293a1 1 0 010 1.414z" fill="currentColor"/>
  </symbol>

  <!-- Arrow Next -->
  <symbol id="arrow_next-20" viewBox="0 0 20 20">
    <path d="M10.293 3.293a1 1 0 011.414 0l6 6a1 1 0 010 1.414l-6 6a1 1 0 01-1.414-1.414L14.586 11H3a1 1 0 110-2h11.586l-4.293-4.293a1 1 0 010-1.414z" fill="currentColor"/>
  </symbol>

  <!-- Arrow Down -->
  <symbol id="arrow-down" viewBox="0 0 20 20">
    <path d="M5.293 7.293a1 1 0 011.414 0L10 10.586l3.293-3.293a1 1 0 111.414 1.414l-4 4a1 1 0 01-1.414 0l-4-4a1 1 0 010-1.414z" fill="currentColor"/>
  </symbol>

  <!-- Arrow Down Work -->
  <symbol id="arrow_down_work" viewBox="0 0 20 20">
    <path d="M5.293 7.293a1 1 0 011.414 0L10 10.586l3.293-3.293a1 1 0 111.414 1.414l-4 4a1 1 0 01-1.414 0l-4-4a1 1 0 010-1.414z" fill="currentColor"/>
  </symbol>

  <!-- Caret Down -->
  <symbol id="caret-down-12" viewBox="0 0 12 12">
    <path d="M3 4.5L6 7.5L9 4.5" stroke="currentColor" stroke-width="1.5" stroke-linecap="round" stroke-linejoin="round" fill="none"/>
  </symbol>

  <!-- Menu Icon -->
  <symbol id="menu" viewBox="0 0 20 20">
    <path d="M3 5a1 1 0 011-1h12a1 1 0 110 2H4a1 1 0 01-1-1zM3 10a1 1 0 011-1h12a1 1 0 110 2H4a1 1 0 01-1-1zM3 15a1 1 0 011-1h12a1 1 0 110 2H4a1 1 0 01-1-1z" fill="currentColor"/>
  </symbol>

  <!-- Instagram -->
  <symbol id="instagram" viewBox="0 0 20 20">
    <path d="M10 2.163c3.204 0 3.584.012 4.85.07 3.252.148 4.771 1.691 4.919 4.919.058 1.265.069 1.645.069 4.849 0 3.205-.012 3.584-.069 4.849-.149 3.225-1.664 4.771-4.919 4.919-1.266.058-1.644.07-4.85.07-3.204 0-3.584-.012-4.849-.07-3.26-.149-4.771-1.699-4.919-4.92-.058-1.265-.07-1.644-.07-4.849 0-3.204.013-3.583.07-4.849.149-3.227 1.664-4.771 4.919-4.919 1.266-.057 1.645-.069 4.849-.069zm0-2.163c-3.259 0-3.667.014-4.947.072-4.358.2-6.78 2.618-6.98 6.98-.059 1.281-.073 1.689-.073 4.948 0 3.259.014 3.668.072 4.948.2 4.358 2.618 6.78 6.98 6.98 1.281.058 1.689.072 4.948.072 3.259 0 3.668-.014 4.948-.072 4.354-.2 6.782-2.618 6.979-6.98.059-1.28.073-1.689.073-4.948 0-3.259-.014-3.667-.072-4.947-.196-4.354-2.617-6.78-6.979-6.98-1.281-.059-1.69-.073-4.949-.073zm0 5.838c-3.403 0-6.162 2.759-6.162 6.162s2.759 6.163 6.162 6.163 6.162-2.759 6.162-6.163c0-3.403-2.759-6.162-6.162-6.162zm0 10.162c-2.209 0-4-1.79-4-4 0-2.209 1.791-4 4-4s4 1.791 4 4c0 2.21-1.791 4-4 4zm6.406-11.845c-.796 0-1.441.645-1.441 1.44s.645 1.44 1.441 1.44c.795 0 1.439-.645 1.439-1.44s-.644-1.44-1.439-1.44z" fill="currentColor"/>
  </symbol>

  <!-- Twitter -->
  <symbol id="twitter" viewBox="0 0 20 20">
    <path d="M6.29 18.251c7.547 0 11.675-6.253 11.675-11.675 0-.178 0-.355-.012-.53A8.348 8.348 0 0020 3.92a8.19 8.19 0 01-2.357.646 4.118 4.118 0 001.804-2.27 8.224 8.224 0 01-2.605.996 4.107 4.107 0 00-6.993 3.743 11.65 11.65 0 01-8.457-4.287 4.106 4.106 0 001.27 5.477A4.073 4.073 0 01.8 7.713v.052a4.105 4.105 0 003.292 4.022 4.095 4.095 0 01-1.853.07 4.108 4.108 0 003.834 2.85A8.233 8.233 0 010 16.407a11.616 11.616 0 006.29 1.84" fill="currentColor"/>
  </symbol>

  <!-- LinkedIn -->
  <symbol id="linkedin" viewBox="0 0 20 20">
    <path d="M16.338 16.338H13.67V12.16c0-.995-.017-2.277-1.387-2.277-1.39 0-1.601 1.086-1.601 2.207v4.248H8.014v-8.59h2.559v1.174h.037c.356-.675 1.227-1.387 2.526-1.387 2.703 0 3.203 1.778 3.203 4.092v4.711zM5.005 6.575a1.548 1.548 0 11-.003-3.096 1.548 1.548 0 01.003 3.096zm-1.337 9.763H6.34v-8.59H3.667v8.59zM17.668 1H2.328C1.595 1 1 1.581 1 2.298v15.403C1 18.418 1.595 19 2.328 19h15.34c.734 0 1.332-.582 1.332-1.299V2.298C19 1.581 18.402 1 17.668 1z" fill="currentColor"/>
  </symbol>

  <!-- Filters Clear -->
  <symbol id="icon--filters_clear" viewBox="0 0 16 16">
    <path d="M8 0C3.6 0 0 3.6 0 8s3.6 8 8 8 8-3.6 8-8-3.6-8-8-8zm3.5 10.1L10.1 11.5 8 9.4 5.9 11.5 4.5 10.1 6.6 8 4.5 5.9 5.9 4.5 8 6.6l2.1-2.1 1.4 1.4L9.4 8l2.1 2.1z" fill="currentColor"/>
  </symbol>

  <!-- Pentagram Logo -->
  <symbol id="logo" viewBox="0 0 192 38">
    <path d="M0 0h192v38H0z" fill="none"/>
    <text x="96" y="24" text-anchor="middle" font-family="Aktiv Grotesk, sans-serif" font-size="24" font-weight="bold" fill="currentColor">PENTAGRAM</text>
  </symbol>
</svg>
